<svg xmlns="http://www.w3.org/2000/svg" viewBox="0 0 440 130" fill="none" role="img" aria-label="Kinovy">
  <defs>
    <linearGradient id="wmHeart" x1="18" y1="18" x2="102" y2="112" gradientUnits="userSpaceOnUse">
      <stop offset="0" stop-color="#6FB6EE"/>
      <stop offset="1" stop-color="#FFB5A7"/>
    </linearGradient>
  </defs>
  <g transform="translate(6 8) scale(0.95)">
    <path d="M60 106 C 24 80 12 56 12 39 C 12 24 23 14 37 14 C 48 14 56 21 60 30 C 64 21 72 14 83 14 C 97 14 108 24 108 39 C 108 56 96 80 60 106 Z" fill="url(#wmHeart)"/>
    <path d="M60 33 C 60 15 71 4 89 4 C 89 22 78 33 60 33 Z" fill="#7FD1AE"/>
    <path d="M63 29 C 71 21 79 13 85 8" stroke="#FFFFFF" stroke-width="2.6" stroke-linecap="round" opacity="0.85"/>
  </g>
  <text x="150" y="88" font-family="'Poppins','SF Pro Rounded','Segoe UI',system-ui,sans-serif" font-size="74" font-weight="700" fill="#2A3B47" letter-spacing="-1">Kinovy</text>
</svg>
